<svg xmlns="http://www.w3.org/2000/svg" width="64" height="64" fill="none"><path fill="#54596E" fill-rule="evenodd" d="M32 64c17.673 0 32-14.327 32-32C64 14.327 49.673 0 32 0 14.327 0 0 14.327 0 32c0 17.673 14.327 32 32 32zm11.168-35.274c.451-.402.451-1.034 0-1.435l-10.116-9c-.435-.388-1.16-.388-1.597 0L21.34 27.29c-.452.401-.452 1.033 0 1.435.435.388 1.161.388 1.613 0l8.164-7.277v24.013c0 .56.516 1.005 1.145 1.005.63 0 1.13-.445 1.13-1.005V21.449l8.18 7.277c.435.388 1.16.388 1.597 0z" clip-rule="evenodd" opacity=".3"/></svg>