<svg xmlns="http://www.w3.org/2000/svg" width="145" height="56" fill="none"><path fill="#3E9F59" d="M23.6 17.978l-4.981 4.636-4.623-9.325 2.392-5.362c.605-1.075 1.593-1.077 2.199 0L23.6 17.978z"/><path fill="#428755" d="M18.618 22.614L0 39.934l13.995-26.645 4.623 9.325z"/><path fill="#62CB80" d="M29.05 10.892c.89-.856 1.81-.564 2.044.648l4.846 28.161-16.064 9.628c-.562.31-2.05.445-2.05.445s-1.36-.162-1.878-.45L0 39.932l29.05-29.04z"/><path fill="#3E9F59" d="M13.995 13.289L0 39.934 6.234.992c.23-1.213.92-1.33 1.536-.26l6.225 12.557z"/><path fill="#54596E" d="M44.169 42.003l9.258-13.207-9.697.658 1.01-5.529 7.502.483 7.328-.527-.746 4.564-9.302 13.251 10.662-.614-.965 5.528-7.46-.482-8.336.482.746-4.607zM71.11 41.871c.848 0 1.74-.219 2.676-.658.936-.438 1.668-.877 2.194-1.316l.79-.658 2.019 2.457c-.293.497-.746 1.068-1.36 1.711-.615.644-1.244 1.2-1.888 1.668-.614.438-1.447.848-2.5 1.228a9.808 9.808 0 0 1-3.204.527c-2.37 0-4.3-.892-5.792-2.677-1.492-1.813-2.237-4.139-2.237-6.976 0-3.57 1.038-6.7 3.115-9.39 2.077-2.692 4.505-4.037 7.284-4.037 2.135 0 3.788.6 4.958 1.799 1.2 1.2 1.799 2.881 1.799 5.046 0 1.287-.22 2.75-.658 4.388l-.878.921-10.97 1.01c.498 3.305 2.048 4.957 4.652 4.957zm0-13.602c-1.287 0-2.37.527-3.247 1.58-.878 1.024-1.39 2.34-1.536 3.949l7.46-.922c.087-.672.131-1.228.131-1.667 0-1.96-.936-2.94-2.808-2.94zM88.805 12.385l-.57 22.554.483 10.311-5.924 1.097.527-10.662-.527-22.203 6.011-1.097zM91.479 56c-1.2 0-2.399-.131-3.598-.395l1.36-5.002c.995.264 1.916.395 2.764.395.878 0 1.507-.322 1.887-.965.38-.644.57-1.8.57-3.467l-.043-10.881-.483-10.575 5.88-1.097-.527 10.926.483 9.916c0 3.043-.82 5.66-2.457 7.855C95.677 54.902 93.73 56 91.479 56zm2.15-38.35c0-1.023.38-1.915 1.14-2.676.761-.79 1.639-1.185 2.634-1.185 1.023 0 1.784.278 2.281.834.527.527.79 1.331.79 2.413 0 1.053-.366 1.975-1.097 2.765s-1.594 1.184-2.589 1.184c-.965 0-1.74-.307-2.325-.921-.556-.614-.834-1.419-.834-2.413zM103.417 37.177c0-3.745 1.009-6.919 3.028-9.522 2.018-2.604 4.373-3.905 7.064-3.905 2.72 0 4.827.877 6.319 2.633 1.521 1.755 2.281 4.08 2.281 6.976 0 3.861-.98 7.08-2.94 9.653-1.93 2.545-4.373 3.818-7.327 3.818-2.428 0-4.447-.907-6.056-2.72-1.579-1.843-2.369-4.154-2.369-6.933zm13.778-1.536c0-4.242-1.448-6.363-4.344-6.363-3.013 0-4.52 1.99-4.52 5.968 0 2.077.425 3.7 1.273 4.87.848 1.17 1.96 1.755 3.335 1.755 1.404 0 2.457-.526 3.159-1.58.731-1.081 1.097-2.632 1.097-4.65zM137.529 24.189c1.96 0 3.554.848 4.783 2.544 1.228 1.697 1.843 3.876 1.843 6.538 0 3.832-1.01 6.977-3.028 9.434-1.989 2.428-4.578 3.642-7.766 3.642-1.463 0-3.92-.234-7.372-.702l.439-9.96-.527-22.203 6.012-1.097-.571 11.32v4.74c.322-.468.717-.966 1.185-1.492.468-.527 1.199-1.112 2.194-1.755.994-.673 1.93-1.01 2.808-1.01zm-1.711 5.704c-1.346 0-2.838.41-4.476 1.228v3.818l.263 6.45c1.229.146 2.384.22 3.467.22 2.808 0 4.212-1.946 4.212-5.837 0-3.92-1.155-5.88-3.466-5.88z"/></svg>