<svg xmlns="http://www.w3.org/2000/svg" width="161" height="51" fill="none"><path fill="#54596E" d="M62.878 37.492v3.107H45.413V38.16l12.312-15.3H45.649v-3.108h16.914v2.478L50.25 37.492h12.627zM86.465 30.293c0 .289-.026.669-.078 1.141H69.473c.236 1.836 1.036 3.317 2.4 4.445 1.389 1.101 3.107 1.652 5.152 1.652 2.491 0 4.497-.84 6.018-2.518l2.085 2.44c-.944 1.1-2.124 1.94-3.54 2.516-1.39.577-2.95.866-4.681.866-2.203 0-4.156-.446-5.86-1.337-1.705-.918-3.03-2.19-3.974-3.816-.917-1.626-1.376-3.461-1.376-5.507 0-2.019.445-3.841 1.337-5.467.918-1.626 2.163-2.885 3.737-3.776 1.6-.918 3.396-1.377 5.389-1.377 1.993 0 3.763.459 5.31 1.377 1.573.891 2.793 2.15 3.658 3.776.891 1.626 1.337 3.487 1.337 5.585zM76.16 22.741c-1.81 0-3.33.55-4.563 1.652-1.206 1.101-1.914 2.544-2.124 4.327h13.374c-.21-1.757-.931-3.186-2.164-4.287-1.206-1.128-2.714-1.692-4.523-1.692zM91.709 11.413h3.776v29.186h-3.776V11.413zM100.02 48.466c-.918 0-1.77-.105-2.557-.315-.786-.21-1.442-.524-1.966-.944l1.219-2.91c.787.655 1.81.983 3.068.983.996 0 1.757-.315 2.281-.944.551-.603.826-1.508.826-2.714v-21.87h3.776v21.79c0 2.151-.576 3.843-1.73 5.075-1.154 1.233-2.793 1.849-4.917 1.849zm4.759-32.726c-.734 0-1.35-.236-1.848-.709a2.354 2.354 0 0 1-.708-1.73c0-.682.236-1.259.708-1.73.498-.5 1.114-.748 1.848-.748.735 0 1.338.236 1.81.708.498.446.747 1.01.747 1.691 0 .708-.249 1.311-.747 1.81-.472.472-1.075.708-1.81.708zM122.802 40.835c-2.072 0-3.934-.459-5.586-1.377-1.652-.918-2.95-2.176-3.894-3.776-.918-1.626-1.377-3.461-1.377-5.507 0-2.045.459-3.868 1.377-5.467a9.807 9.807 0 0 1 3.894-3.776c1.652-.918 3.514-1.377 5.586-1.377 2.071 0 3.92.459 5.546 1.377a9.545 9.545 0 0 1 3.855 3.776c.944 1.6 1.416 3.422 1.416 5.467 0 2.046-.472 3.881-1.416 5.507-.918 1.6-2.203 2.858-3.855 3.776-1.626.918-3.475 1.377-5.546 1.377zm0-3.304c1.337 0 2.53-.302 3.579-.905a6.654 6.654 0 0 0 2.517-2.596c.604-1.127.905-2.413.905-3.855 0-1.442-.301-2.714-.905-3.815-.603-1.128-1.442-1.993-2.517-2.596-1.049-.603-2.242-.905-3.579-.905-1.338 0-2.544.302-3.619.905-1.049.603-1.888 1.468-2.518 2.596-.603 1.101-.904 2.373-.904 3.815 0 1.442.301 2.728.904 3.855a7.044 7.044 0 0 0 2.518 2.596c1.075.603 2.281.905 3.619.905zM149.894 19.555c2.019 0 3.828.446 5.428 1.337a9.485 9.485 0 0 1 3.737 3.737c.918 1.6 1.376 3.448 1.376 5.546 0 2.098-.458 3.96-1.376 5.586a9.485 9.485 0 0 1-3.737 3.736c-1.6.892-3.409 1.338-5.428 1.338-1.547 0-2.963-.302-4.248-.905a8.175 8.175 0 0 1-3.186-2.635v3.304h-3.619V11.413h3.776v11.485a7.853 7.853 0 0 1 3.147-2.478c1.258-.577 2.635-.865 4.13-.865zm-.315 17.976c1.338 0 2.531-.302 3.58-.905a6.654 6.654 0 0 0 2.517-2.596c.629-1.127.944-2.413.944-3.855 0-1.442-.315-2.714-.944-3.815-.603-1.128-1.442-1.993-2.517-2.596-1.049-.603-2.242-.905-3.58-.905-1.311 0-2.504.302-3.579.905-1.075.603-1.915 1.468-2.518 2.596-.603 1.101-.904 2.373-.904 3.815 0 1.442.301 2.728.904 3.855A6.657 6.657 0 0 0 146 36.626c1.075.603 2.268.905 3.579.905z"/><path fill="#3E9F59" d="M24.608 18.422l-5.104 4.75-4.736-9.553 2.45-5.494c.62-1.102 1.633-1.104 2.253 0l5.137 10.297z"/><path fill="#428755" d="M19.51 23.17L.436 40.916l14.337-27.298 4.737 9.553z"/><path fill="#62CB80" d="M30.197 11.163c.912-.876 1.855-.577 2.095.664l4.965 28.852-16.458 9.863c-.576.318-2.102.456-2.102.456s-1.392-.166-1.922-.46L.435 40.914l29.762-29.752z"/><path fill="#3E9F59" d="M14.774 13.615L.437 40.912 6.823 1.016c.235-1.243.942-1.362 1.574-.265l6.377 12.864z"/></svg>