<svg xmlns="http://www.w3.org/2000/svg" viewBox="0 0 497.778 497.778"><path fill="#ffcc4d" d="M490.666 241.778c0 133.532-108.245 241.777-241.777 241.777C115.37 483.555 7.11 375.31 7.11 241.777 7.111 108.26 115.371 0 248.89 0 382.42 0 490.666 108.26 490.666 241.778"/><path fill="#664500" d="M206.223 197.546c0 27.507-15.915 49.778-35.555 49.778s-35.555-22.273-35.555-49.778c0-27.491 15.915-49.777 35.555-49.777s35.554 22.286 35.554 49.777"/><path fill="#f5f8fa" d="M433.777 192c0 51.057-41.386 92.445-92.445 92.445S248.887 243.059 248.887 192s41.387-92.445 92.445-92.445 92.446 41.388 92.446 92.445"/><path fill="#67757f" d="M341.334 113.778c-43.121 0-78.223 35.086-78.223 78.222s35.1 78.222 78.223 78.222 78.222-35.086 78.222-78.222-35.101-78.223-78.222-78.223m0 184.89c-58.824 0-106.666-47.844-106.666-106.667S282.51 85.334 341.334 85.334 448 133.178 448 192s-47.844 106.666-106.666 106.666"/><path fill="#664500" d="M206.223 133.589c-4.324 0-8.59-1.963-11.393-5.689-13.297-17.735-27.235-27.25-41.401-28.26-18.674-1.265-33.891 12.73-36.721 15.56-5.562 5.561-14.55 5.561-20.11 0s-5.562-14.549 0-20.11c6.13-6.13 28.6-25.999 58.837-23.807 22.77 1.607 43.676 14.918 62.151 39.552 4.708 6.286 3.441 15.204-2.845 19.911a14.175 14.175 0 0 1-8.518 2.843"/><path fill="#292f33" d="M448 497.777c-7.865 0-14.223-6.357-14.223-14.222V199.11c0-7.851 6.358-14.223 14.223-14.223 7.865 0 14.223 6.372 14.223 14.223v284.445c0 7.865-6.358 14.222-14.223 14.222"/><path fill="#67757f" d="M476.445 199.111c0 15.715-12.729 28.445-28.445 28.445-15.715 0-28.445-12.729-28.445-28.445s12.729-28.445 28.445-28.445c15.715 0 28.445 12.729 28.445 28.445"/><path fill="#664500" d="M291.541 384c-2.134 0-4.309-.484-6.342-1.494-24.434-12.231-48.185-12.231-72.619 0-7.026 3.499-15.574.654-19.086-6.371-3.513-7.026-.654-15.559 6.371-19.086 32.513-16.241 65.507-16.241 98.047 0 7.027 3.527 9.886 12.06 6.372 19.086-2.503 4.993-7.523 7.865-12.743 7.865"/><g fill="#bdddf4"><path d="M383.873 126.435c-12.245-7.965-26.838-12.629-42.54-12.629-43.192 0-78.222 35.015-78.222 78.223 0 15.701 4.679 30.279 12.629 42.539l108.133-108.133zM307.911 262.656c10.14 4.793 21.419 7.566 33.38 7.566 43.208 0 78.223-35.028 78.223-78.222 0-11.961-2.759-23.254-7.567-33.38L307.911 262.656z"/></g></svg>